<svg width="100" height="100" viewBox="0 0 100 100" fill="none" xmlns="http://www.w3.org/2000/svg">
<path d="M79.1667 29.1666V41.625C79.1667 41.625 70.875 41.6666 70.8333 41.625V29.1666H58.3333C58.3333 29.1666 58.375 20.875 58.3333 20.8333H70.8333V8.33331H79.1667V20.8333H91.6667V29.1666H79.1667ZM66.6667 45.8333V33.3333H54.1667V20.8333H20.8333C16.25 20.8333 12.5 24.5833 12.5 29.1666V79.1666C12.5 83.75 16.25 87.5 20.8333 87.5H70.8333C75.4167 87.5 79.1667 83.75 79.1667 79.1666V45.8333H66.6667ZM20.8333 79.1666L33.3333 62.5L41.6667 75L54.1667 58.3333L70.8333 79.1666H20.8333Z" fill="#BAE4EA"/>
</svg>
